PathFileType	3	(X/Y/Z)	results
DataRate	CameraRate	NumFrames	NumMarkers	Units	OrigDataRate	OrigDataStartFrame	OrigNumFrames
30.0	30.0	4	85	mm	30.0	117	233
Frame#	Time	head			nose			neck			shoulder_r			elbow_r			wrist_r			shoulder_l			elbow_l			wrist_l			hip_r			knee_r			ankle_r			hip_l			knee_l			ankle_l			heel_r			heel_l			mtoe_r			ltoe_r			mtoe_l			ltoe_l			asis_l			asis_r			psi_r			psi_l			mhnd_r			lhnd_r			mhnd_l			lhnd_l			l_lat_knee			r_med_wrist			l_lat_ankle			r_med_ankle			r_lat_knee			xiphoid			l_med_ankle			r_med_knee			l_med_elbow			navel			r_lat_elbow			r_lat_wrist			l_med_wrist			l_lat_elbow			l_med_knee			r_med_elbow			r_lat_ankle			l_lat_wrist			chin			T10			r_eye			l_eye			l_ear			r_ear			spinal_cord_8			spinal_cord_12			spinal_cord_27			spinal_cord_33			up_arm_r_0			up_arm_r_5			up_arm_l_0			up_arm_l_5			front_torso_11			front_torso_7			front_torso_4			front_torso_1			front_torso_10			thigh_r_2			thigh_r_3			thigh_l_1			thigh_l_5			shank_l_0			shank_l_4			shank_r_1			shank_r_2			foot_r_1			foot_r_3			foot_r_5			foot_r_6			foot_r_7			foot_l_1			foot_l_7			foot_l_0			foot_l_4			foot_l_5			foot_l_6			
		X1	Y1	Z1	X2	Y2	Z2	X3	Y3	Z3	X4	Y4	Z4	X5	Y5	Z5	X6	Y6	Z6	X7	Y7	Z7	X8	Y8	Z8	X9	Y9	Z9	X10	Y10	Z10	X11	Y11	Z11	X12	Y12	Z12	X13	Y13	Z13	X14	Y14	Z14	X15	Y15	Z15	X16	Y16	Z16	X17	Y17	Z17	X18	Y18	Z18	X19	Y19	Z19	X20	Y20	Z20	X21	Y21	Z21	X22	Y22	Z22	X23	Y23	Z23	X24	Y24	Z24	X25	Y25	Z25	X26	Y26	Z26	X27	Y27	Z27	X28	Y28	Z28	X29	Y29	Z29	X30	Y30	Z30	X31	Y31	Z31	X32	Y32	Z32	X33	Y33	Z33	X34	Y34	Z34	X35	Y35	Z35	X36	Y36	Z36	X37	Y37	Z37	X38	Y38	Z38	X39	Y39	Z39	X40	Y40	Z40	X41	Y41	Z41	X42	Y42	Z42	X43	Y43	Z43	X44	Y44	Z44	X45	Y45	Z45	X46	Y46	Z46	X47	Y47	Z47	X48	Y48	Z48	X49	Y49	Z49	X50	Y50	Z50	X51	Y51	Z51	X52	Y52	Z52	X53	Y53	Z53	X54	Y54	Z54	X55	Y55	Z55	X56	Y56	Z56	X57	Y57	Z57	X58	Y58	Z58	X59	Y59	Z59	X60	Y60	Z60	X61	Y61	Z61	X62	Y62	Z62	X63	Y63	Z63	X64	Y64	Z64	X65	Y65	Z65	X66	Y66	Z66	X67	Y67	Z67	X68	Y68	Z68	X69	Y69	Z69	X70	Y70	Z70	X71	Y71	Z71	X72	Y72	Z72	X73	Y73	Z73	X74	Y74	Z74	X75	Y75	Z75	X76	Y76	Z76	X77	Y77	Z77	X78	Y78	Z78	X79	Y79	Z79	X80	Y80	Z80	X81	Y81	Z81	X82	Y82	Z82	X83	Y83	Z83	X84	Y84	Z84	X85	Y85	Z85	
117	3.9	-3465.157422761763	1646.7299655948993	-511.64728757910893	-3463.807913485293	1391.5695639576302	-498.0920605140755	-3688.8942142776846	1339.3846407101983	-520.9671399903283	-3802.583074226953	1331.2854427341247	-328.9066825503318	-3990.7781721294414	1100.44063847434	-272.7070403280274	-3997.413520389392	829.6408117282008	-250.99745630386826	-3632.770053612704	1263.1521261518694	-707.7538502913411	-3680.2257536426673	999.2851902067185	-853.7361310009068	-3562.734091654027	755.0444259299318	-812.3876360612019	-3934.0837907472055	854.423143752019	-458.1039100449946	-4003.119673675953	471.1471665646248	-422.32832610820583	-4164.684090986647	99.46331429907174	-533.7010253290132	-3877.219713171336	758.8631872962119	-664.0652390161371	-3559.947320583035	551.8195157185633	-520.5507050072988	-3678.093175728719	153.14866086231527	-573.4268525565523	-4183.219999448432	42.615473029273325	-558.295335576388	-3709.4591216735453	93.32341400066254	-594.7026320131316	-4158.549235289807	42.222727716902064	-326.80506814627483	-4230.856995057612	57.51324061822913	-381.9702475832991	-3510.319292437027	53.66257183258351	-471.798514462291	-3520.5427009609557	56.450508622787076	-573.9145816964109	-3779.8532602415175	777.7959738402549	-705.0666678619016	-3868.5735244821394	916.4693567206351	-404.42486039774246	-3973.8816520315413	957.8808859554846	-583.695999069673	-3939.5345318326426	906.9118721252368	-683.2438516708183	-4028.8079375175726	764.5990357234012	-238.1271135816995	-3979.494693868518	744.81776706337	-244.90558433512598	-3548.606649725005	681.1150901471459	-824.6140621951292	-3514.7943201605817	686.6935069556552	-783.6097336547808	-3543.89831280579	559.361727746386	-566.6791499305448	-4025.4203839787588	842.0860350088385	-235.8428109232711	-3652.0767859125813	135.06425026938922	-623.6825949057037	-4133.244184725324	72.82595959601001	-529.0526163824368	-4043.935021820264	471.28165091291726	-407.00104949658214	-3680.5767918242113	1119.425097015495	-488.3501297750305	-3689.799451851574	139.22197305568125	-540.1948289428259	-3964.6202350821186	458.6336198174316	-434.133089464018	-3717.648919546379	1008.5565228620878	-837.1357222182878	-3757.7066223113407	882.1409650021702	-519.641102817093	-3966.493043376268	1100.1788182243235	-233.23982984144274	-3969.1721831042473	835.6675731696215	-275.23821789351945	-3574.2437269291013	756.4752768606567	-848.7249754359234	-3641.4239307452203	1017.1548817086677	-871.9950120851256	-3586.3532077589284	563.9155726884661	-479.93063040635656	-4005.1000255232793	1111.8918533516023	-311.28901306835536	-4219.059614853698	98.75753956947692	-526.9206979184089	-3548.3568296754347	776.3195984073383	-786.1464076420888	-3532.817786966865	1329.3678161197743	-511.8778587483913	-3841.0275062498094	1217.3701442857223	-610.7520005188945	-3453.321396551839	1425.593444929477	-456.41028562256326	-3432.554615926676	1420.3261580566182	-536.5466074140971	-3517.215943602164	1479.714833877011	-627.563882645502	-3573.2461992772874	1491.4099592872783	-429.89701210306146	-3705.3215237580257	1423.1684735436934	-541.9455458205351	-3797.388642249977	1322.4207782112717	-595.8637665014166	-3899.6401693561215	1052.207332348849	-614.4623979169478	-3833.982130681295	1201.4881537345098	-604.2553960252067	-3854.982251329005	1182.777280652706	-307.0233197359283	-3942.428305122657	1221.8457907937207	-270.846588519834	-3615.9999718246763	1216.5371504176767	-757.6917516556995	-3714.9228920865476	1080.4184734090825	-811.2145486293443	-3814.1710525427393	934.2492271698956	-490.0586111371913	-3691.8616398641802	1014.5747501281488	-482.8200826440064	-3610.2428540754377	1157.2254997593584	-543.6161461182156	-3711.846410017046	954.511548730762	-603.1423295240384	-3690.29395134237	1213.3492523317746	-382.14009444408015	-3954.837903710503	643.2240306159658	-444.22133791904315	-4050.040420131614	626.8951089668861	-409.5440439479242	-3683.229648255041	606.1050151937854	-524.7610009407206	-3737.6943770028306	732.6038579326527	-706.4282874199707	-3598.57671944082	241.3860323183551	-613.0951691267509	-3632.642407578971	399.81051381449697	-496.03728625992625	-4130.802851287505	334.500971142768	-461.0341294646251	-4047.113029596284	260.2349162586003	-482.4587316073821	-4185.54732538906	42.16619800983898	-342.73091296161357	-4210.338383375054	51.303934301073454	-357.8239768538423	-4152.1541199553585	45.67839402015901	-413.46007168966617	-4187.384918479607	63.95925720041012	-424.2520947738905	-4223.348080865469	60.61703011001265	-432.8258185985702	-3509.174474265746	49.46198270720893	-531.3803224948145	-3591.6363631876275	99.8009726454932	-596.0425583768789	-3508.5210426584968	52.09637178872763	-548.8120362856716	-3510.563706148719	46.30162629048227	-510.29693573171	-3558.165503927459	72.92004261317328	-543.4675382598873	-3599.788968815771	87.48871602516412	-528.9123789232347	
118	3.933333333333333	-3449.7090972797273	1631.4522508533369	-512.8163273378722	-3456.737207245422	1376.1815693619392	-503.87872357669505	-3684.9212471578976	1330.060446536692	-520.4751222297573	-3789.346974675548	1314.430229299479	-321.0659196121752	-3980.1779746993116	1086.222284895975	-263.01609743123873	-3984.439471806552	815.0687217731589	-245.53854328376656	-3637.8745544433427	1267.003417104532	-708.1461128258254	-3699.4158257571808	1003.6482071766479	-849.7276616254459	-3608.5911488995243	745.1051207086115	-858.3235977829776	-3944.5706836381064	857.1468922995382	-454.74938659446195	-3999.5118796609063	470.9740721478234	-425.01643845478173	-4173.118653156469	103.68219915699123	-532.7809657306012	-3901.637212981772	759.3515180810003	-663.0234356423624	-3570.1561786563943	560.1534684103941	-542.2428475888657	-3696.3374983201943	161.49637426208906	-571.2872348727864	-4193.905072118491	48.75811923969964	-558.7110086262425	-3730.3422109512144	102.47088436356319	-588.230955697135	-4161.725709085175	34.10805155521758	-328.61014187531885	-4233.186787744024	61.33578897517457	-380.15986041622887	-3522.832672435618	56.66462253069753	-482.5112607357656	-3541.4268054482563	60.412844418176945	-583.4081928543743	-3805.842468879858	774.7070523003871	-708.9295169512394	-3874.2466119545425	916.8504248751533	-404.62173912586053	-3986.89666303891	961.8253866259344	-578.4897248174929	-3959.4680215907138	909.5312016561747	-679.4863972425774	-4015.1771733698993	749.5809388254842	-233.3634966036254	-3965.786657242643	730.3072047643178	-240.98860950568053	-3604.4244031469184	673.0860448823511	-883.0320527673483	-3566.80221711543	668.3968321750915	-845.3713341588888	-3556.3604581697095	570.6090985422061	-588.536521995472	-4012.3759695372964	827.046985225611	-229.88592157257358	-3674.1787665597517	141.17540515924142	-622.5277159996547	-4141.096745289332	77.40784103066328	-534.7506354059844	-4037.429903692307	469.5433737475935	-403.59397127457305	-3682.0556370379118	1108.953906076364	-495.59670229717335	-3705.804245353954	148.99148347044877	-536.8000584983834	-3963.268069437568	460.0555470060731	-443.55594272744264	-3735.5597758705835	1013.7259682961262	-830.9106977834257	-3769.1908847175396	875.4955181353662	-529.3090852151726	-3955.379978129821	1085.4850489758874	-223.87516513100334	-3956.5136919061347	821.7049128453021	-269.9848373296722	-3622.9199301690624	753.6058062397119	-892.6360684637077	-3661.459106882546	1020.6724942709568	-870.4099055605169	-3595.400491278846	569.1242249969032	-500.0937030994811	-3994.8374016806733	1097.9979848095948	-301.37295495968766	-4225.753454169523	101.5516827507279	-517.6744381435287	-3589.599372004455	760.2290995861115	-830.7823856061435	-3528.8851354397243	1316.7654882451761	-513.1455497313208	-3846.724674944544	1216.1740604374004	-603.7994215779254	-3441.7011757639884	1408.9536410611267	-462.5886406787233	-3427.611397871134	1404.5882669594018	-544.2174053802238	-3517.0134861667407	1468.79272830229	-627.0651776018082	-3556.603433135972	1478.4350332365175	-425.3524628960852	-3699.7966550097353	1415.0028763978967	-537.5978119345525	-3798.614382859999	1319.1896646919147	-588.4752339279439	-3911.102780524041	1053.210129536292	-608.9163072923493	-3839.8189733280988	1199.8590264250192	-598.3028989429209	-3843.643986804488	1166.6472992778824	-298.90131715822616	-3930.0167382524237	1206.894619267715	-261.4604607156779	-3625.125216727547	1219.891330761036	-758.8007405189047	-3729.824507238948	1085.6063918583143	-805.537684470025	-3821.7666488648724	928.3445118039663	-494.36055772074536	-3696.554510046721	1004.3930253898245	-492.7106374186483	-3614.2395958127895	1146.3519728874217	-554.1836885709183	-3726.4439819209465	949.1862653462222	-613.3060577752825	-3681.5471079330564	1199.426592346948	-386.0011906047974	-3958.773587344911	645.0936557415877	-446.9887941702911	-4046.8479400155647	624.9228131500297	-398.31936800678477	-3695.746749956917	609.0059773395806	-539.0145214843222	-3762.9554068671955	741.4246309072308	-711.987535253014	-3618.8435977753443	247.05021380309822	-619.8414499288064	-3642.6585385833523	410.2148479106487	-506.83044976612024	-4130.426846044281	334.52824523234864	-451.79560341393767	-4050.4483738779786	263.2637034511843	-490.56744647571077	-4189.014068989222	38.34205785108395	-343.44089378245803	-4212.870310365045	51.3524865639382	-357.1340983151524	-4157.8497439017165	40.824390143157785	-415.2230534919726	-4190.692020749319	64.04923012089769	-423.817152920971	-4227.049052584055	65.85152470522237	-431.0935697133733	-3526.7579523008517	52.83615004978634	-541.9997670417109	-3612.905725522856	105.79967361047963	-599.3461542231637	-3527.4838212958293	55.56940587203877	-559.4133838744309	-3526.475941274838	49.57224509789528	-520.8882912630189	-3575.926553834444	77.67864104295693	-549.8611671271383	-3615.784047567861	93.25844307570455	-531.8261539716069	
119	3.966666666666667	-3432.4596625558693	1613.3091492571111	-515.8205396248879	-3443.0724657415167	1358.1561675367675	-507.0615301189596	-3677.792090875261	1320.4706669225125	-517.1775110027187	-3768.1753579110964	1298.930668303636	-319.05471415581883	-3953.0023861409186	1068.7078875117736	-250.48679779273257	-3956.243372661732	796.9849999448036	-248.47472686668712	-3632.7020117564934	1265.1202326909886	-701.4762229711388	-3705.5090663825436	1007.8943224841104	-848.8620891405416	-3662.7500884612255	741.1010167929797	-895.3437140117082	-3960.3023728990343	857.0176757051256	-463.31034543873153	-3987.8184300595744	467.5615988018704	-431.31085872543133	-4182.444516141512	109.94599065921612	-535.6544667559176	-3919.7328485974826	761.6093015953519	-673.1594661793833	-3584.079070645605	568.6100561137735	-553.0015059741963	-3710.4285768915997	169.78883802770366	-578.8900913991233	-4207.842634807034	59.23472631477049	-563.353544209057	-3745.6290950864136	113.18329189343923	-595.671954252011	-4158.806468594314	14.880162620112095	-340.13913640675753	-4228.572913801766	58.990806697738755	-381.2767485386719	-3534.0295668107824	52.578634420219664	-506.85871634872416	-3557.1967993368744	69.82154336566154	-605.3774622245106	-3821.999490859816	770.9662856678508	-716.5234070085949	-3886.9875139314495	910.0456951205579	-410.0587866602454	-3991.838920798612	967.6498219127209	-585.0753707222982	-3965.935245992362	916.0373650237154	-686.822576677536	-3985.560423505915	730.807392195959	-236.5280730714826	-3937.527130570067	712.157848610418	-251.15816358851168	-3669.4257048690697	674.3365230519101	-931.5729193828474	-3636.994665576304	656.666636626946	-892.9497381592946	-3571.026197517974	578.9090967658555	-599.5908227249845	-3982.042313174668	807.9459076720726	-228.89911864026752	-3688.3669296043663	149.0849481016931	-630.0190533045679	-4151.673624511128	84.28550659758405	-546.3463264176409	-4020.7737913226633	464.33581988623354	-403.1408637728759	-3681.036402518284	1098.6889949605168	-499.3557782659407	-3719.8376584087296	157.54071265105173	-544.2951562618367	-3956.3475680233105	459.3836841958216	-458.01976483867804	-3742.204256998136	1021.7334927034539	-833.8966328982912	-3775.6260103663885	869.0624158800144	-538.8061941970441	-3923.6518217135867	1065.7438484317984	-214.74808527922224	-3931.4374016081315	805.120362660439	-275.6774690289102	-3672.003093995832	757.4149096772036	-928.5575674304777	-3664.093829213086	1020.8187320437148	-865.4762951318158	-3609.29107476982	577.8156060570132	-510.804198192638	-3972.076113397981	1082.6091095025097	-286.0924628338845	-4231.043533349018	105.91271599063612	-510.6537312568873	-3644.0049554556476	747.8092335384389	-864.4963395434056	-3516.4912288084847	1299.8954071883697	-513.1309072144275	-3844.3392637383627	1214.0656663982688	-601.0429515540703	-3425.6520381518276	1390.581087655284	-466.43992097076193	-3415.3801370670653	1386.212203019477	-548.6362375181278	-3507.4599397049847	1452.0193575211977	-627.1819437825301	-3537.6279053462476	1461.7447992918385	-423.8505225735664	-3690.445345137728	1406.315421373512	-531.3286219848197	-3792.9375064852275	1315.0955732123907	-583.3663304987223	-3913.594302158495	1053.2879818898614	-610.1116664410592	-3837.823885998112	1197.388852249797	-596.1937729146696	-3820.969435225631	1150.39077518979	-298.3686055784636	-3901.7291179336726	1188.9072982996809	-248.60649361942322	-3619.5969266940156	1216.4710746591188	-750.5628990334706	-3731.9050224865896	1092.9209645208032	-808.0171424263189	-3825.9901521869274	922.2652886760377	-501.23580390869114	-3698.5716483423294	994.5543858010953	-499.5067354063767	-3613.1854338368166	1135.9655847039494	-557.9797299868733	-3732.202381046607	944.1418512782933	-621.211182634841	-3675.9188007073403	1185.5407679215093	-386.98442323621583	-3961.931404123509	644.4238968490002	-457.85545294450986	-4036.617102186758	618.899123802983	-392.25667248292194	-3710.55373255328	615.7530298229158	-549.2929227881735	-3781.214364078797	745.2273851676839	-723.1170676272859	-3632.9960671919707	254.95970986697824	-628.2095086029459	-3656.562268267604	418.95800767041635	-516.3590375652786	-4122.580879600667	332.82946548529816	-443.9461358243798	-4052.501339761891	266.2201378607856	-504.1997855821976	-4186.110030405899	25.163470768928292	-351.5978310800086	-4208.403327638018	43.355969312490224	-361.49415633289516	-4161.3757833731215	30.09065978227761	-425.71932200186285	-4190.236011049524	59.24620579312873	-428.7039963219596	-4226.200941543858	67.84773100478213	-431.9545054372421	-3540.729713807374	56.7217593692651	-566.0777162723185	-3628.7967668903875	117.31709560159989	-611.7677717549182	-3542.2232263942374	61.751826830338615	-582.9210967487687	-3539.515791170185	50.676142603795704	-545.6227920469867	-3589.9136303021933	82.65884061106374	-568.2485506061734	-3628.714940077192	95.91869756450747	-546.4484063193127	
120	4.0	-3417.489255210675	1592.5051700232373	-520.9470726364025	-3425.343523684	1337.34532187727	-509.80443916670083	-3666.405045641206	1306.7393118363912	-513.1243371383482	-3745.998363629556	1280.2981727658537	-319.6134642013453	-3921.253731067906	1046.8548090528689	-238.0360749528755	-3918.2387525644854	775.438848854017	-251.1572983993004	-3631.2297632862865	1263.3735420558546	-702.9455189638668	-3709.1763256076338	1003.2428957914548	-842.3908843509333	-3728.531085370386	739.4147151046294	-914.4160463094228	-3975.873519269964	851.0041247597682	-479.5637738276562	-3971.6020358849137	461.42079682356433	-431.897926430771	-4184.90102939856	115.40354729078356	-538.8157804097426	-3929.885770436679	764.5202281914843	-692.145429244022	-3595.2400713733437	573.7464413132094	-563.8517963673675	-3728.574268125839	178.153739502027	-601.550428035675	-4214.243222280869	68.52137195617728	-567.3995513798626	-3765.468621088801	124.24734612919323	-619.8904583310275	-4144.998820368754	-7.863214429827327	-358.6720914365461	-4217.531711445429	42.0595138834427	-386.09671248337116	-3553.443123838914	48.88400208351558	-544.3879352541605	-3578.834256122777	76.81381105990357	-639.861481499403	-3829.580384432747	770.0141420431792	-729.9401402370099	-3902.477904281494	896.4213934825252	-419.7881658999402	-3994.141215199711	969.7098394042274	-596.3370225038628	-3965.951418870947	922.0513479592706	-699.3969253294465	-3944.525208456897	707.9048446170403	-239.76132179353678	-3898.0834856536308	691.4477700217252	-260.77020880773256	-3735.8252525279313	680.0450747928084	-961.7093622797896	-3732.8364658370033	651.2441815710024	-916.7947429732687	-3581.4062781996286	585.0214077604862	-610.1072941748087	-3941.861593840084	784.5865341083523	-228.1961901554574	-3707.7202926160003	158.92700221644702	-653.751791652054	-4155.984084442555	89.81188718565147	-553.9320400167649	-4001.8924435221884	457.76221943675733	-401.07798952146703	-3678.6776728923937	1084.8844916154103	-501.0797906916764	-3737.6012409051546	164.83819470056378	-567.249306239545	-3943.449467968721	455.009855739674	-462.42779621423614	-3742.5598699905804	1028.0884098725567	-847.892149813618	-3781.874669607365	860.311300754224	-547.4387905260646	-3887.869612916167	1042.749113426615	-206.15911382655042	-3896.8976039284357	785.7360839231186	-280.48359772937414	-3715.384874513154	758.8120609760929	-944.5132452592406	-3662.8819717804713	1002.3058871436319	-838.6161139596811	-3622.2358619710335	582.6297184356182	-522.4963008000946	-3944.4241424297597	1061.935897989055	-270.6015048004385	-4231.035985588935	110.84813790953962	-509.5927994484911	-3726.033463323436	738.4157048091188	-877.8004136175165	-3498.3468246187063	1278.3441365204062	-513.0978392495583	-3836.085613342617	1209.2624455358387	-601.4428659127764	-3406.97614545692	1370.2718229285758	-470.0118919063095	-3399.2397509287966	1365.3136470688344	-552.4521627128759	-3494.3675739748205	1429.5884413482336	-628.597731939789	-3518.250316718114	1440.7267171115166	-424.50483487695084	-3675.4688651111496	1393.35431729461	-525.181229702349	-3780.90886769125	1307.6686734006526	-580.6249239333802	-3911.576818584023	1051.6724980111494	-615.3874757146332	-3830.2950361471944	1192.2199698001584	-596.9591122107724	-3795.879719145372	1130.8534109376594	-298.2278833614675	-3870.1893220883167	1167.1576908314019	-237.8789077109968	-3614.0555471233406	1203.281860973779	-735.2258808340721	-3723.0266938882637	1098.9846319280687	-827.019700700732	-3830.507585492267	914.5175270820786	-509.03109336372756	-3700.3409083174984	981.5739570624412	-504.1066934403032	-3608.7309620385663	1120.8901968657856	-558.0105612770634	-3734.557821549548	935.6610681979363	-627.4178112659531	-3671.392371272185	1168.5757428571114	-386.45239173365815	-3961.973216445587	639.1385078225101	-467.38730700157845	-4027.316212178036	611.2318377546308	-393.33206946415106	-3722.7583822458155	619.8069740276667	-563.5795149952407	-3789.7869233078877	750.1797880279902	-738.1689503036354	-3650.5864067175676	263.77696391107787	-649.1826943719695	-3669.557728764241	424.061379607601	-531.2406305798856	-4110.60629220054	330.69849774491524	-439.823393700856	-4048.3377094083608	266.5340144659104	-510.4207691643525	-4173.073183834334	4.0972645383187265	-365.8351673507362	-4195.864425233377	23.634282234085486	-370.8110706148523	-4155.426152129622	19.569761527535068	-440.529475656402	-4183.890069188646	48.986541199762684	-436.4890072560415	-4219.834197011291	58.137373863151694	-434.96907055555175	-3561.6810532173436	59.28254338794693	-602.6370061855157	-3649.0656442559584	126.71609361953537	-639.1312705844168	-3563.4918483526258	66.05821556533262	-618.8247457407216	-3560.0793132380136	51.133597389449754	-582.9531009972594	-3610.071366878837	86.68283153487715	-600.6111483362241	-3647.8074697919697	98.72007626769319	-576.3685615563253	
